<?xml version="1.0" encoding="utf-8"?>
<!-- Generator: Adobe Illustrator 24.0.1, SVG Export Plug-In . SVG Version: 6.00 Build 0)  -->
<svg version="1.1" id="Layer_1" xmlns="http://www.w3.org/2000/svg" xmlns:xlink="http://www.w3.org/1999/xlink" x="0px" y="0px"
	 viewBox="0 0 226.6 226.6" style="enable-background:new 0 0 226.6 226.6;" xml:space="preserve">
<style type="text/css">
	.st0{fill:#FFFFFF;}
	.st1{fill:#0068FF;}
</style>
<title>detail page link</title>
<path class="st0" d="M0,48.1V0h155c-3.5,1.7-4.6,4.5-4.4,8.3c0.2,4.3,0,8.5,0,12.8c0,4.5,2.3,6.8,6.8,6.8c6.3,0,12.5,0,18.8,0
	c0.6,0,1.2,0.1,1.8,0.1l0.3,0.6c-0.7,0.4-1.3,0.9-1.9,1.4c-26.3,26.3-52.7,52.6-79,79c-3.6,3.6-3.6,6.7-0.1,10.3
	c3.1,3.1,6.1,6.1,9.2,9.2c4,4,6.8,4,10.9-0.1L196,49.8l2.2-2.2v2.8c0,6.2,0,12.4,0,18.5c0,4.2,2.4,6.5,6.6,6.6c4.6,0,9.3,0,13.9,0
	c5.2,0,7.3-2.2,7.3-7.4c0-19.9-0.1-39.9,0.1-59.8c0-3.8-0.9-6.6-4.4-8.2h4.9v226.6H0v-31.8c1.1,3.6,1.6,7.4,3.2,10.7
	C9.8,219.1,20.9,226,35.9,226c45.9,0.1,91.7,0.1,137.6,0c1,0,1.9,0,2.9-0.1c18-0.9,32.7-15.7,32.9-33.8c0.3-24.2,0.1-48.4,0.1-72.6
	c0-5.1-2.1-7.2-7.3-7.2c-4.3,0-8.5,0-12.8,0c-5.7,0-7.7,2-7.8,7.7v69.1c0,6.6-2.4,9.1-9,9.1H37c-6.6,0-9.1-2.5-9.1-9.1
	c0-45.2,0-90.4,0-135.6c0-6.6,2.4-9.1,9-9.1H110c5.3,0,7.4-2.1,7.4-7.5c0-4.6,0-9.3,0-13.9c0-4-2.4-6.4-6.3-6.4
	c-25.8,0-51.5-0.2-77.3,0.1C20.1,17,10,24,3.8,36.2C1.9,39.9,1.2,44.2,0,48.1z"/>
<path class="st1" d="M0,48.1c1.2-4,1.9-8.2,3.8-11.9C10,24,20.1,17.1,33.9,16.9c25.8-0.4,51.5-0.1,77.3-0.1c3.9,0,6.3,2.4,6.3,6.4
	c0,4.6,0,9.3,0,13.9c0,5.4-2.1,7.5-7.4,7.5H36.9c-6.6,0-9,2.4-9,9.1c0,45.2,0,90.4,0,135.6c0,6.5,2.5,9.1,9.1,9.1h135.5
	c6.6,0,9-2.5,9-9.1V120c0-5.6,2.1-7.7,7.8-7.7c4.3,0,8.5,0,12.8,0c5.2,0,7.3,2.1,7.3,7.2c0,24.2,0.2,48.4-0.1,72.6
	c-0.2,18-14.9,32.8-32.9,33.8c-1,0-1.9,0.1-2.9,0.1c-45.8,0-91.7,0-137.6,0c-15.1,0-26.2-7-32.7-20.6c-1.6-3.3-2.2-7.1-3.2-10.7
	L0,48.1z"/>
<path class="st1" d="M221.7,0c3.5,1.7,4.5,4.5,4.4,8.2c-0.1,19.9,0,39.9-0.1,59.8c0,5.2-2.2,7.4-7.3,7.4c-4.6,0-9.3,0-13.9,0
	c-4.2,0-6.6-2.3-6.6-6.6c0-6.2,0-12.4,0-18.5v-2.8l-2.3,2.2l-78.7,78.7c-4,4-6.9,4-10.9,0.1c-3.1-3.1-6.2-6.1-9.2-9.2
	c-3.5-3.6-3.5-6.6,0.1-10.3c26.3-26.3,52.7-52.7,79-79c0.6-0.5,1.3-1,1.9-1.4L178,28c-0.6,0-1.2-0.1-1.8-0.1c-6.3,0-12.5,0-18.8,0
	c-4.5,0-6.8-2.3-6.8-6.8c0-4.3,0.2-8.5,0-12.8c-0.2-3.8,0.9-6.6,4.4-8.3H221.7z"/>
</svg>
