<svg id="Layer_1" data-name="Layer 1" xmlns="http://www.w3.org/2000/svg" viewBox="0 0 125.11 116.3"><defs><style>.cls-1{fill:#fc653e;}</style></defs><title>Print icon</title><path class="cls-1" d="M319,235.1v44.23a3.29,3.29,0,0,0-.16.44,9.86,9.86,0,0,1-10.42,8.17c-3.29-.12-6.59,0-9.89,0H296v1.47q0,10,0,20c0,3.51-1.55,5.09-5,5.09H222c-3.51,0-5.08-1.56-5.08-5.05V287.92h-1.5c-3.75,0-7.49,0-11.24,0-6.15,0-10.24-4.15-10.24-10.31q0-20.4,0-40.79c0-6.14,4.14-10.26,10.28-10.28,3.78,0,7.57,0,11.36,0h1.34V203.15c0-3.33,1.62-4.94,5-4.94h69.26c3.32,0,4.92,1.62,4.92,5q0,10.94,0,21.87v1.5h13a9.16,9.16,0,0,1,8,3.93A26,26,0,0,1,319,235.1Zm-31.38,37h-62.3v33.93h62.3Zm-62.34-45.67h62.29V206.61H225.28ZM286.49,251h5.24a4.21,4.21,0,0,0,4.27-4.12,4.16,4.16,0,0,0-4.19-4.19c-3.54,0-7.08-.05-10.62,0a4.15,4.15,0,1,0,.05,8.29C283,251,284.74,251,286.49,251Z" transform="translate(-193.89 -198.21)"/><path class="cls-1" d="M256.41,286.67c-6,0-12,0-18,0a4.14,4.14,0,0,1-4-5.67,4.28,4.28,0,0,1,4.28-2.64h20.76c5,0,9.93,0,14.9,0a4,4,0,0,1,3.87,2.49,3.92,3.92,0,0,1-.7,4.43,4.27,4.27,0,0,1-3.5,1.4C268.21,286.66,262.31,286.68,256.41,286.67Z" transform="translate(-193.89 -198.21)"/><path class="cls-1" d="M256.55,291.53c5.95,0,11.89,0,17.83,0a4.14,4.14,0,0,1,4,5.61,4.2,4.2,0,0,1-4.12,2.69c-3.34,0-6.68,0-10,0q-12.76,0-25.52,0c-3.22,0-5.29-2.69-4.31-5.52a4.14,4.14,0,0,1,4.15-2.79Q247.59,291.5,256.55,291.53Z" transform="translate(-193.89 -198.21)"/></svg>